<?xml version="1.0" encoding="utf-8"?>
<!DOCTYPE svg PUBLIC "-//W3C//DTD SVG 1.0//EN" "http://www.w3.org/TR/2001/REC-SVG-20010904/DTD/svg10.dtd">
<svg version="1.0" xmlns="http://www.w3.org/2000/svg" width="1080px" height="1080px" viewBox="0 0 1080 1080" preserveAspectRatio="xMidYMid meet">
 <g fill="#fbfbfb">
  <path d="M 351.5 655 c -4.9 -0.4 -11.9 -1.5 -15.5 -2.4 -7.4 -1.9 -25 -8.7 -25 -9.8 0 -0.4 1.7 0 3.8 0.9 6.5 2.8 20.5 6.3 25.1 6.3 2.9 0 6.4 -1 10.3 -3 6.2 -3.2 12.7 -3.9 15 -1.7 5.5 5.3 14.2 6.7 20.6 3.4 3.2 -1.7 3.2 -1.7 3.2 0.7 0 2.2 -0.6 2.5 -8.7 3.9 -11.9 2.2 -18.2 2.5 -28.8 1.7 z "/>
  <path d="M 381.8 632.3 c -1 -0.3 -1.8 -0.8 -1.8 -1.1 0.1 -0.4 3.4 -4.3 7.5 -8.7 7.5 -7.9 7.5 -7.9 9.1 -5.7 0.8 1.2 2.2 2.2 3 2.2 0.8 0 1.4 0.5 1.4 1 0 0.6 0.7 1 1.6 1 2.7 0 1 2.3 -4.9 6.8 -5.6 4.3 -10.7 5.7 -15.9 4.5 z "/>
  <path d="M 319.2 630.1 c -3.9 -1 -5.3 -2.7 -7.6 -9.2 -1.6 -4.4 -2.2 -4.9 -6.7 -6.4 -4.1 -1.4 -4.9 -2 -4.9 -4.2 0 -2 0.3 -2.4 1.8 -1.8 7.1 3.1 10.6 3.7 19.7 3.9 11.5 0.1 17.9 -1.6 23.8 -6.5 6.5 -5.4 5.6 -5.7 -9.3 -2.9 -21.3 3.9 -47 -7.1 -65 -27.6 -6.5 -7.5 -7.6 -11.4 -4.9 -17.4 2 -4.4 3.1 -4.9 5.1 -2.2 2.6 3.4 13.3 12.5 20.2 17.1 13.8 9.1 25 12.7 38 11.9 10.6 -0.7 13.6 -2.1 22.6 -10.7 5 -4.7 8.6 -7.3 10.7 -7.7 3.7 -0.7 8.1 -4.6 8.9 -7.9 0.3 -1.2 0.1 -4.6 -0.5 -7.6 -4.4 -21.7 -4.5 -22.6 -2.8 -25.3 1 -1.4 4.3 -4.5 7.4 -6.8 5.2 -4 6.2 -4.3 12.7 -4.6 5.8 -0.3 8.4 0.1 14 2.2 9.4 3.6 12.9 5.8 21.5 14 10.8 10.4 18.2 22.6 22.1 36.7 2.5 9.3 2.5 10.9 0 10.9 -1.1 0 -2 -0.5 -2 -1 0 -0.6 -1.1 -2.2 -2.4 -3.5 -3.3 -3.2 -5.6 -2.3 -5.6 2.1 0 2.6 -0.4 3.4 -1.9 3.4 -1.5 0 -1.9 -1.1 -2.5 -7.7 -0.3 -4.2 -0.9 -7.9 -1.2 -8.2 -1.1 -1.1 -2.4 2.5 -2.4 6.7 0 3.4 -0.3 4.2 -1.8 4.2 -2.4 0 -14.2 5.9 -14.2 7.1 0 0.5 -0.9 0.9 -2 0.9 -1.9 0 -2 -0.7 -2 -12.7 -0.1 -20.7 -2.3 -26.3 -10.6 -26.3 -6.4 0 -7.4 2.5 -7.4 18.6 0 14.9 -1.5 21.6 -7.1 32.4 -6.7 12.9 -16.5 22.3 -30.6 29.5 -11.1 5.6 -25.6 8.5 -33.1 6.6 z "/>
  <path d="M 265.5 605.6 c -11.4 -16.1 -17.2 -27.3 -21.1 -40.9 -2.5 -8.4 -2.7 -10.8 -2.8 -27.2 -0.1 -17.2 0 -18.4 2.8 -27 3.2 -10.1 6.7 -18.4 7.8 -18.5 0.4 0 0.4 2.1 0 4.8 -0.4 2.6 -0.7 9.9 -0.7 16.2 0 11.8 0.1 12.3 5.1 20.7 1.8 3.1 1.8 3.3 0.1 6 -4.6 7.1 -6.1 11.8 -6.1 18.8 0.1 5.2 0.6 8.1 2.3 11.3 2.4 4.7 18.3 21.2 24.4 25.2 3.9 2.6 4.7 4 2.2 4 -0.8 0 -1.5 0.5 -1.5 1 0 0.6 -2.2 1 -5 1 -4.9 0 -5 0.1 -5 3 0 3.2 -0.9 3.8 -2.5 1.6 z "/>
  <path d="M 641 557.5 l 0 -33.5 4 0 c 3.9 0 4 0.1 4 3.6 l 0 3.6 3 -2.5 c 11.7 -9.9 30 -6.1 37.3 7.8 3 5.7 3 17.4 -0.1 23.1 -7.1 13.7 -24.4 17.6 -36.4 8.2 l -3.8 -2.9 0 13.1 0 13 -4 0 -4 0 0 -33.5 z  M684 548.1 C 684 538.3 676.1 530.4 666.3 530.4 656.5 530.4 648.6 538.3 648.6 548.1 648.6 557.9 656.5 565.8 666.3 565.8 676.1 565.8 684 557.9 684 548.1 Z M673.3 564.6 "/>
  <path d="M 463.4 581.3 c 3 -9.6 2.2 -25.9 -1.4 -31.8 -1.1 -1.8 -2 -3.8 -2 -4.4 0 -0.6 1.9 -3.9 4.3 -7.3 4 -5.9 4.2 -6.7 4.6 -14.6 0.4 -11.3 -1.8 -15.8 -14.1 -27.9 -12.2 -12.1 -17.4 -16 -28.9 -22.2 -21 -11.2 -41.2 -12.2 -52.5 -2.5 l -3.9 3.3 3.1 0.1 c 1.7 0 6.7 -0.5 11.2 -1.1 14.1 -1.9 29 2.3 43.7 12.2 11.1 7.5 23 18.7 26.1 24.5 1.8 3.2 1.8 3.5 0 8.8 -1 3 -2.2 5.9 -2.6 6.6 -0.4 0.7 -3.4 -1.6 -8.1 -6.5 -9.5 -9.8 -19.6 -17.5 -28.1 -21.5 -3.7 -1.8 -7.3 -3.3 -8 -3.4 -0.7 -0.2 -3.3 -0.8 -5.8 -1.5 -6.2 -1.8 -20.5 -1 -25 1.4 -1.9 1 -6.1 4.1 -9.4 6.9 -3.2 2.8 -8.8 7.2 -12.5 9.7 -9.7 6.7 -9.9 7.3 -6.5 23.9 3.3 15.8 3.1 16.9 -4.1 22.1 -5.7 4.2 -13.4 6.3 -20.2 5.4 -12.8 -1.6 -23 -7.1 -33.4 -18.2 -8.4 -8.9 -12.1 -14.4 -16.9 -24.6 -3 -6.4 -7 -20.2 -7 -24.2 0 -0.3 1.7 -0.5 3.7 -0.4 2.1 0.1 5.8 -0.2 8.3 -0.6 l 4.5 -0.7 -0.3 6.3 c -0.4 6.4 1.4 17.9 2.8 17.9 0.7 0 1.2 -2.3 2.6 -13.5 1.2 -9.8 9.3 -28.3 16.5 -38.2 4.8 -6.4 15.2 -17.2 19.6 -20.1 3.7 -2.6 8.9 -2.8 12.1 -0.6 l 2.3 1.6 -6.3 6.7 c -8 8.4 -17 22.7 -20.5 32.2 -2.4 6.7 -2.7 8.7 -2.7 21.9 -0.1 16.1 1 21.4 5.2 26 3.9 4.3 8.4 4.9 11.6 1.7 2.6 -2.6 2.6 -2.9 2.6 -17 0 -16.8 1.7 -24 8 -34.7 12.1 -20.3 32.7 -32.9 59 -36.1 8.4 -1 12.1 -0.9 23.1 0.7 2.8 0.3 12.6 3.9 14.5 5.2 0.6 0.4 1.9 3.2 2.9 6.2 3.5 10.6 5.2 13.7 8.6 15.4 1.7 0.9 4.5 1.6 6 1.6 2.3 0 2.8 -0.5 3.1 -2.8 0.3 -2.6 0.6 -2.4 5.1 3.8 5.7 7.6 13.1 22.5 15.9 31.9 2.8 9.2 3.5 31.3 1.5 43.9 -2.1 12.7 -8.5 30.2 -11 30.2 -1.3 0 -1.7 -0.5 -1.3 -1.7 z "/>
  <path d="M 535 544 l 0 -29 -11 0 -11 0 0 -3.5 0 -3.5 26.5 0 26.5 0 0 3.5 0 3.5 -11 0 -11 0 0 29 0 29 -4.5 0 -4.5 0 0 -29 z "/>
  <path d="M 576 548.5 l 0 -24.5 4 0 4 0 0 4.1 0 4 3.3 -3.4 c 3 -3.2 8.6 -5.7 13 -5.7 1.3 0 1.7 0.8 1.7 3.9 0 3.8 0 3.8 -4.5 4.3 -5.5 0.7 -8.9 2.8 -11.2 7.1 -1.4 2.6 -1.8 6.3 -2.1 19 l -0.4 15.7 -3.9 0 -3.9 0 0 -24.5 z "/>
  <path d="M 615 548.5 l 0 -24.5 4 0 4 0 0 24.5 0 24.5 -4 0 -4 0 0 -24.5 z "/>
  <path d="M 705 538.5 l 0 -34.5 4 0 4 0 0 34.5 0 34.5 -4 0 -4 0 0 -34.5 z "/>
  <path d="M 745 572.1 c -11.6 -3.8 -17.5 -11.9 -17.5 -24.1 0 -8.1 1.5 -12.1 6.4 -17.3 4.6 -5 9.8 -7.1 17.6 -7.1 13.7 0 22.2 7.8 24.1 22.2 l 0.7 5.2 -20.7 0 c -15.8 0 -20.6 0.3 -20.6 1.3 0 0.6 1 3 2.3 5.1 4.7 8.3 16.6 11.1 26.3 6.1 l 4.9 -2.5 1.8 2.1 c 2.1 2.6 1.2 4.1 -4.7 7.1 -4.5 2.3 -16.2 3.4 -20.6 1.9 z  m 22.6 -29.8 c -0.9 -3.8 -3.6 -7.3 -7.6 -10 -8.6 -5.9 -22.1 -0.4 -24.6 10 l -0.6 2.7 16.7 0 16.7 0 -0.6 -2.7 z "/>
  <path d="M 806.8 571.3 c 0.5 -1 7.1 -15.6 14.7 -32.5 l 13.9 -30.8 4.6 0 4.6 0 11.4 25.3 c 6.2 13.8 12.8 28.5 14.7 32.5 l 3.2 7.2 -4.3 0 -4.3 0 -3.8 -8.5 -3.8 -8.5 -18 0.2 -18 0.3 -3.5 8.3 -3.5 8.2 -4.4 0 c -3.8 0 -4.3 -0.2 -3.5 -1.7 z  m 47.2 -23.1 c 0 -0.9 -11.3 -27 -13.2 -30.6 -1 -1.8 -1.1 -1.7 -2.3 1 -0.7 1.6 -4 9.1 -7.3 16.7 l -6.1 13.7 14.5 0 c 7.9 0 14.4 -0.4 14.4 -0.8 z "/>
  <path d="M 885 540.5 l 0 -32.5 4 0 4 0 0 32.5 0 32.5 -4 0 -4 0 0 -32.5 z "/>
  <path d="M 301.2 445.9 c -2.3 -2.2 -4.2 -4.3 -4.2 -4.7 0 -2.5 30.1 -16.4 38.4 -17.7 1.7 -0.3 5.6 -0.9 8.6 -1.4 10.6 -1.8 36.1 -0.8 42 1.6 0.8 0.3 2 0.7 2.7 0.9 4.8 1 19.6 6.4 19 7 -0.1 0.2 -3.2 -0.6 -6.7 -1.7 -7.3 -2.3 -20 -3.4 -26.5 -2.4 -2.6 0.3 -5.9 1.8 -8.1 3.6 -4.7 3.7 -8.6 3.7 -14.3 -0.1 -5.1 -3.5 -9.5 -4.5 -15.7 -3.6 -6.2 0.8 -11.4 4.1 -21.9 13.9 l -9.1 8.5 -4.2 -3.9 z "/>
 </g>
 <g fill="#ffffff" stroke="#ffffff" stroke-width="1">
  <path d="M 384.9 649.9 c 1 -1 3.8 -2.7 6.2 -3.9 4.6 -2.3 20.9 -18.4 28.4 -28.1 8.6 -11 12.3 -22.9 12.6 -39.7 0.2 -8.4 0.5 -10.1 1.8 -10.1 0.9 0 2.8 -0.2 4.3 -0.5 3.5 -0.5 9.2 4.6 9.8 8.9 0.6 4.3 0.4 8.6 -0.5 11.3 -0.5 1.6 -0.3 2.2 0.6 2.2 0.8 0 2.5 1.2 3.8 2.5 2.2 2.4 2.3 2.8 1.1 7.3 -2.3 8.4 -5.2 12.4 -18.1 25.2 -8.1 8.1 -13.2 11.7 -23.4 16.8 -15 7.5 -22.3 10.3 -26.2 10 -2.1 -0.2 -2.2 -0.3 -0.4 -1.9 z "/>
  <path d="M 301.5 630 c -8.7 -2.5 -11.2 -3.6 -18 -8.2 -9.2 -6.3 -17.4 -14.6 -18.7 -19 -0.6 -2.1 -0.9 -4 -0.6 -4.3 0.2 -0.3 2.8 -0.6 5.6 -0.7 2.9 -0.1 5.2 -0.6 5.2 -1 0 -1.8 4.1 -0.5 9 2.8 2.9 2 7.8 4.7 10.9 6 3.1 1.4 6.7 3 8.1 3.8 1.4 0.7 4.2 1.9 6.2 2.5 3.1 1 3.9 1.9 5.4 6 2.9 8 3.4 8.4 11.4 8.2 6 -0.2 6.9 0 6.4 1.4 -0.4 0.8 -1.8 1.8 -3.3 2.1 -1.4 0.3 -4 1 -5.7 1.5 -4.5 1.4 -14.9 0.8 -21.9 -1.1 z "/>
  <path d="M 399 624 c -1.4 -0.4 -2 -0.9 -1.5 -1 0.6 -0.1 0 -0.5 -1.2 -1 -4.4 -1.8 -4.4 -4 0.3 -11 5.1 -7.6 9.9 -19.3 10.9 -26.8 0.4 -2.9 1.4 -6 2.3 -6.9 2.6 -2.6 11.4 -6.3 15.1 -6.3 l 3.4 0 -0.6 4.3 c -0.8 5.3 -0.8 5.6 -3.9 15.2 -3.6 11 -9.2 20.6 -16.3 28 -5.3 5.5 -6.3 6.2 -8.5 5.5 z "/>
  <path d="M 267.6 497.5 c -1.7 -1.3 -1.8 -2.3 -1.3 -9.4 1.4 -18.1 10.4 -32.9 27.2 -44.9 6.4 -4.5 7 -4.5 11.9 0.6 l 2.8 3 -6.2 7.4 c -10.7 12.7 -17.5 26.4 -19.5 39.3 -0.4 2.8 -1 4.5 -1.2 3.9 -0.3 -0.9 -1.8 -0.8 -5.6 0.2 -6.3 1.7 -5.8 1.7 -8.1 -0.1 z "/>
  <path d="M 442.5 478.2 c -0.3 -0.7 -0.9 -1.1 -1.4 -0.8 -1.7 1.1 -4.6 -3.9 -7.4 -12.5 -5.1 -15.5 -4.9 -14.1 -1.8 -12.5 9.4 4.9 23.8 18.9 24.3 23.7 0.3 2.3 0 2.4 -6.4 2.9 -5.1 0.4 -6.9 0.2 -7.3 -0.8 z "/>
 </g>
</svg>