<svg width="431" height="526" viewBox="0 0 431 526" fill="none" xmlns="http://www.w3.org/2000/svg">
<path fill-rule="evenodd" clip-rule="evenodd" d="M172.547 43.7564C238.449 25.13 308.46 -18.1052 370.918 8.34446C433.06 34.6606 458.504 106.26 464.613 167.441C470.097 222.354 415.713 265.021 401.915 318.757C385.905 381.112 430.512 461.245 378.003 504.758C326.528 547.415 242.58 513.411 172.547 508.829C108.603 504.645 33.2009 519.715 -12.1432 479.23C-57.2182 438.986 -34.4779 371.379 -44.3842 315.148C-52.2845 270.303 -82.4697 225.859 -64.2457 183.481C-46.2762 141.694 6.52671 124.191 48.3437 99.5165C87.975 76.1313 127.261 56.556 172.547 43.7564Z" fill="#6C88FF" fill-opacity="0.1"/>
</svg>
