<svg width="899" height="616" viewBox="0 0 899 616" fill="none" xmlns="http://www.w3.org/2000/svg">
<path fill-rule="evenodd" clip-rule="evenodd" d="M407.57 51.2433C518.309 29.4298 635.955 -21.203 740.907 9.77222C845.329 40.5912 888.084 124.441 898.35 196.09C907.564 260.399 816.179 310.367 792.994 373.297C766.091 446.321 841.047 540.166 752.813 591.123C666.315 641.079 525.251 601.257 407.57 595.891C300.119 590.991 173.416 608.639 97.221 561.228C21.4781 514.098 59.6905 434.923 43.0442 369.07C29.7686 316.552 -20.9537 264.504 9.66936 214.875C39.8649 165.938 128.593 145.441 198.862 116.544C265.457 89.1575 331.472 66.2329 407.57 51.2433Z" fill="#6C88FF" fill-opacity="0.1"/>
</svg>
